# xmcd
#
# Track frame offsets: 
#        150
#        25607
#        45299
#        66920
#        88377
#        114246
#        131578
#        147471
#        165280
#        182840
#        194812
#
# Disc length: 2874 seconds
#
# Revision: 0
# Processed by: cddbd v1.5.2PL0 Copyright (c) Steve Scherf et al.
# Submitted via: ExactAudioCopyFreeDBPlugin 1.0
#
DISCID=970b380b
DTITLE=Francesco Piu - ma-moo tones
DYEAR=2012
DGENRE=Blues
TTITLE0=the end of your spell
TTITLE1=over you
TTITLE2=trouble so hard
TTITLE3=hooks in my skin
TTITLE4=blind track
TTITLE5=colors
TTITLE6=stand-by button
TTITLE7=overdose of sorrow
TTITLE8=down on my knees
TTITLE9=soul of a man
TTITLE10=third stone from the sun
EXTD=
EXTT0=
EXTT1=
EXTT2=
EXTT3=
EXTT4=
EXTT5=
EXTT6=
EXTT7=
EXTT8=
EXTT9=
EXTT10=
PLAYORDER=
